<svg width="16" height="16" viewBox="0 0 16 16" fill="none" xmlns="http://www.w3.org/2000/svg">
<path d="M7.33337 1.33331H6.00004C2.66671 1.33331 1.33337 2.66665 1.33337 5.99998V9.99998C1.33337 13.3333 2.66671 14.6666 6.00004 14.6666H10C13.3334 14.6666 14.6667 13.3333 14.6667 9.99998V8.66665" stroke="black" stroke-linecap="round" stroke-linejoin="round"/>
<path d="M10.6934 2.01332L5.44004 7.26665C5.24004 7.46665 5.04004 7.85999 5.00004 8.14665L4.71337 10.1533C4.60671 10.88 5.12004 11.3867 5.84671 11.2867L7.85337 11C8.13337 10.96 8.52671 10.76 8.73337 10.56L13.9867 5.30665C14.8934 4.39999 15.32 3.34665 13.9867 2.01332C12.6534 0.679985 11.6 1.10665 10.6934 2.01332Z" stroke="black" stroke-miterlimit="10" stroke-linecap="round" stroke-linejoin="round"/>
<path d="M9.94 2.76666C10.3867 4.36 11.6333 5.60666 13.2333 6.06" stroke="black" stroke-miterlimit="10" stroke-linecap="round" stroke-linejoin="round"/>
</svg>
